<?xml version="1.0" standalone="no"?>
<!DOCTYPE svg PUBLIC "-//W3C//DTD SVG 20010904//EN"
 "http://www.w3.org/TR/2001/REC-SVG-20010904/DTD/svg10.dtd">
<svg version="1.0" xmlns="http://www.w3.org/2000/svg"
 width="512.000000pt" height="512.000000pt" viewBox="0 0 512.000000 512.000000"
 preserveAspectRatio="xMidYMid meet">

<g transform="translate(0.000000,512.000000) scale(0.100000,-0.100000)"
fill="#000000" stroke="none">
<path d="M1983 5106 c-195 -48 -349 -220 -390 -437 l-16 -84 -121 0 c-137 -1
-209 -16 -322 -70 -193 -92 -344 -275 -400 -485 -17 -64 -25 -244 -14 -318 5
-33 5 -33 -75 -65 -243 -98 -408 -298 -461 -557 -43 -213 26 -468 170 -626
l53 -58 -56 -42 c-31 -23 -71 -61 -89 -83 -47 -58 -92 -148 -92 -182 0 -39 32
-69 73 -69 39 0 55 15 90 86 35 69 132 157 202 183 86 32 152 36 241 16 68
-17 80 -17 103 -4 36 20 50 63 30 97 -24 44 -102 65 -243 67 l-119 1 -62 66
c-143 154 -196 355 -145 552 29 113 73 190 161 278 58 59 94 86 150 112 123
58 121 58 160 -16 60 -113 281 -308 350 -308 32 0 69 39 69 73 0 44 -5 49 -90
105 -222 144 -324 398 -260 646 29 113 73 190 160 277 198 199 491 235 732 89
78 -46 100 -49 133 -15 54 53 17 112 -108 173 l-67 32 0 43 c1 168 118 327
275 372 167 49 357 -40 433 -203 l27 -57 3 -317 3 -317 -54 -36 c-77 -51 -186
-86 -284 -93 -141 -8 -263 27 -391 112 -77 52 -103 56 -137 21 -55 -54 -11
-119 134 -193 130 -68 206 -87 356 -87 140 0 222 18 327 71 l48 24 0 -1439 0
-1440 23 -25 c32 -36 74 -39 107 -6 19 19 20 33 20 395 l0 375 105 0 105 0 0
-220 c0 -230 6 -269 45 -284 9 -3 96 -6 194 -6 l177 0 18 -41 c22 -50 73 -102
129 -131 59 -32 175 -32 233 -1 66 35 101 70 130 129 93 191 -61 413 -273 391
-96 -10 -195 -83 -224 -166 l-11 -31 -134 0 -134 0 0 180 0 180 105 0 c116 0
160 12 208 58 45 42 69 100 75 175 l5 67 79 0 c44 0 88 5 99 11 46 24 42 105
-7 128 -14 6 -58 11 -99 11 l-75 0 0 150 0 150 88 0 88 0 13 -36 c17 -48 82
-111 140 -137 56 -25 159 -28 212 -5 97 42 169 148 169 249 0 162 -117 279
-279 279 -100 0 -206 -71 -245 -165 l-15 -35 -85 0 -86 0 0 145 0 145 84 0
c67 0 88 4 107 18 33 27 30 78 -5 109 -23 20 -38 23 -105 23 l-78 0 -5 70 c-7
89 -42 151 -111 194 -45 27 -57 30 -163 34 l-114 5 2 176 3 176 127 3 127 3
25 -48 c89 -175 319 -208 448 -65 52 57 70 105 71 183 0 84 -27 142 -93 202
-55 50 -103 67 -186 67 -102 0 -206 -68 -243 -157 l-13 -31 -184 -4 c-248 -4
-228 20 -232 -278 l-3 -230 -105 0 -105 0 3 653 3 652 23 50 c53 115 126 183
233 216 197 61 389 -43 458 -249 12 -34 21 -86 21 -116 0 -48 -3 -56 -22 -62
-46 -14 -157 -88 -167 -111 -16 -34 -14 -47 10 -77 29 -36 68 -34 137 9 118
72 267 105 391 86 150 -23 241 -69 347 -175 275 -274 218 -711 -121 -935 -63
-41 -70 -50 -73 -82 -3 -30 2 -41 24 -58 15 -11 36 -21 48 -21 38 0 148 73
226 150 62 63 138 168 153 214 6 19 117 -26 194 -77 110 -73 190 -177 233
-302 11 -32 28 -67 37 -77 22 -25 78 -23 104 3 18 18 20 29 15 67 -8 63 -84
216 -143 287 -85 104 -227 202 -339 235 l-42 12 6 127 c4 107 1 139 -17 211
-67 271 -267 476 -537 551 -61 17 -106 22 -196 22 l-118 0 0 32 c0 17 -7 58
-15 90 -52 202 -213 364 -403 404 -188 39 -404 -42 -512 -193 l-32 -45 -38 48
c-125 158 -336 233 -527 187z m1606 -1202 c89 -74 38 -214 -78 -214 -76 0
-121 48 -121 131 0 33 6 47 34 75 30 30 40 34 84 34 40 0 57 -6 81 -26z m-416
-685 c14 -6 30 -22 36 -36 8 -17 11 -208 11 -634 l0 -610 -25 -24 -24 -25
-276 0 -275 0 0 125 0 125 150 0 c147 0 152 1 175 25 l25 24 0 360 c0 243 -4
368 -11 384 -18 40 -50 47 -199 47 l-140 0 0 125 0 125 265 0 c172 0 273 -4
288 -11z m-353 -659 l0 -270 -100 0 -100 0 0 270 0 270 100 0 100 0 0 -270z
m1050 115 c42 -22 63 -68 57 -122 -6 -53 -36 -89 -88 -104 -72 -22 -155 44
-153 122 3 93 100 148 184 104z m-301 -1259 c40 -21 64 -64 64 -111 0 -114
-133 -165 -210 -80 -93 99 25 253 146 191z"/>
<path d="M1796 3339 c-19 -15 -26 -30 -26 -53 0 -41 18 -57 99 -90 35 -14 85
-39 111 -56 56 -36 146 -128 183 -187 34 -53 68 -77 99 -68 69 21 76 74 20
161 -81 125 -212 232 -354 288 -80 31 -97 32 -132 5z"/>
<path d="M4782 2850 c-12 -11 -26 -39 -33 -62 -21 -78 -78 -177 -143 -245
l-63 -67 -119 -2 c-148 -1 -226 -26 -243 -75 -8 -24 -7 -37 4 -60 20 -38 51
-44 128 -25 79 20 117 20 190 1 81 -21 133 -50 186 -104 154 -154 154 -400 -1
-554 -29 -29 -72 -62 -96 -74 l-43 -21 -78 79 c-89 90 -121 100 -168 53 -37
-37 -26 -77 36 -131 196 -171 255 -469 141 -707 -64 -134 -200 -256 -341 -306
-89 -31 -250 -38 -338 -15 -143 37 -289 141 -362 258 -41 65 -55 77 -94 77
-35 0 -60 -22 -70 -60 -8 -35 53 -134 134 -216 l64 -64 -12 -53 c-25 -113
-121 -232 -228 -282 -162 -77 -347 -48 -476 74 -96 91 -137 198 -137 359 0 86
-2 95 -26 119 -20 20 -31 24 -57 19 -56 -11 -67 -35 -67 -152 0 -160 -37 -252
-137 -346 -92 -86 -204 -125 -325 -115 -175 15 -339 158 -377 330 l-11 45 63
64 c68 69 137 173 137 205 0 36 -38 73 -74 73 -35 0 -54 -16 -98 -85 -63 -100
-187 -196 -306 -237 -57 -19 -87 -23 -197 -23 -120 0 -135 3 -200 29 -93 38
-159 82 -220 144 -233 240 -229 605 10 846 83 84 92 110 50 151 -13 14 -35 25
-49 25 -29 0 -110 -62 -155 -119 l-32 -41 -51 26 c-68 34 -137 106 -173 179
-48 95 -117 114 -152 40 -16 -34 -16 -35 21 -111 45 -90 134 -185 218 -233
l57 -32 -19 -50 c-70 -176 -60 -409 26 -586 124 -258 387 -423 674 -423 96 0
205 20 278 51 24 11 47 19 51 19 4 0 15 -25 25 -55 37 -120 152 -251 278 -320
63 -34 187 -65 263 -65 175 0 357 91 459 230 l43 58 43 -59 c99 -137 283 -228
456 -229 33 0 96 9 138 20 189 48 325 170 402 358 13 32 27 57 31 57 4 -1 46
-14 93 -30 79 -27 96 -29 230 -29 168 -1 214 10 355 82 149 77 275 218 342
382 63 158 70 343 16 502 l-29 88 64 37 c118 69 219 206 253 343 51 211 -40
443 -226 577 l-29 21 52 57 c59 64 113 155 142 240 28 81 26 119 -6 144 -34
26 -64 27 -92 1z"/>
<path d="M2115 2474 c-158 -83 -278 -220 -348 -394 -14 -36 -29 -87 -32 -114
-7 -46 -10 -49 -54 -69 -170 -75 -385 -296 -365 -377 9 -38 34 -60 68 -60 40
1 54 12 100 83 42 64 133 151 194 185 l40 22 12 -67 c24 -142 113 -311 204
-391 44 -38 78 -41 111 -7 37 36 32 66 -25 132 -58 67 -123 194 -139 271 -16
75 -14 198 4 267 39 153 150 303 278 375 85 48 108 93 70 138 -29 34 -62 36
-118 6z"/>
</g>
</svg>
